# xmcd
#
# Track frame offsets:
#	183
#	17113
#	21295
#	37993
#	56988
#	73883
#	88455
#	104470
#	124945
#	138458
#	159003
#	172130
#
# Disc length: 2470 seconds
#
# Revision: 0
# Processed by: cddbd v1.5.2PL0 Copyright (c) Steve Scherf et al.
# Submitted via: audiograbber 1.83.01
#
DISCID=ae09a40c
DTITLE=John Cougar Mellencamp - Scarecrow
DYEAR=1985
DGENRE=Rock
TTITLE0=Rain On The Scarecrow
TTITLE1=Grandma's Theme
TTITLE2=Small Town
TTITLE3=Minutes To Memories
TTITLE4=Lonely Ol' Night
TTITLE5=The Face Of The Nation
TTITLE6=Justice And Independence '85
TTITLE7=Between A Laugh And A Tear
TTITLE8=Rumbleseat
TTITLE9=You've Got To Stand For Somethin'
TTITLE10=R.O.C.K. In The U.S.A. (A Salute To 60's Rock)
TTITLE11=The Kind Of Fella I Am
EXTD=
EXTT0=
EXTT1=
EXTT2=
EXTT3=
EXTT4=
EXTT5=
EXTT6=
EXTT7=
EXTT8=
EXTT9=
EXTT10=
EXTT11=
PLAYORDER=
